<svg width="753" height="744" viewBox="0 0 753 744" fill="none" xmlns="http://www.w3.org/2000/svg">
<path fill-rule="evenodd" clip-rule="evenodd" d="M378.701 743.977C361.522 743.815 344.217 743.381 340.243 743.02C336.269 742.658 325.702 741.141 316.76 739.66C307.818 738.178 290.929 734.529 279.223 731.548C267.518 728.568 248.822 722.588 237.677 718.288C226.531 713.971 209.064 706.257 198.858 701.145C188.652 696.014 174.436 688.066 167.246 683.459C160.057 678.852 148.08 670.452 140.638 664.78C133.196 659.107 120.732 648.539 112.964 641.277C105.197 634.015 92.2815 620.285 84.2612 610.747C76.2589 601.226 64.6078 585.726 58.3758 576.278C52.1438 566.83 42.3894 549.777 36.6993 538.378C31.0092 526.96 22.8805 507.053 18.6174 494.118C14.3725 481.183 9.24235 462.052 7.21921 451.629C5.21413 441.187 2.59488 423.393 1.40267 412.084C0.102078 399.601 -0.349507 379.729 0.282725 361.502C0.842702 345.008 2.92004 321.632 4.88899 309.583C6.85794 297.515 10.5429 279.901 13.0538 270.417C15.5827 260.915 20.6045 245.18 24.2172 235.425C27.83 225.67 34.8568 209.971 39.8424 200.523C44.828 191.075 53.3902 176.46 58.8816 168.006C64.3549 159.551 74.3442 145.732 81.0639 137.295C87.7836 128.841 100.573 114.894 109.478 106.313C118.384 97.7325 133.359 84.9965 142.734 78.0415C152.109 71.0864 167.878 60.5363 177.759 54.6109C187.64 48.6856 201.025 41.1705 207.474 37.9188C213.923 34.667 227.344 28.9404 237.279 25.219C247.214 21.4795 263.056 16.3309 272.504 13.7656C281.951 11.2004 296.167 7.91255 304.115 6.44927C312.063 4.986 326.46 2.92656 336.106 1.89685C345.752 0.849068 362.66 0 373.661 0C384.662 0 401.569 0.84906 411.215 1.86071C420.861 2.89042 437.299 5.38341 447.722 7.38864C458.145 9.39387 477.654 14.6689 491.075 19.131C504.497 23.5931 526.083 32.4089 539.071 38.7497C552.041 45.0725 572.362 56.7426 584.23 64.6913C596.08 72.658 613.909 86.4056 623.844 95.2575C633.779 104.109 647.598 117.694 654.552 125.426C661.507 133.176 671.568 145.298 676.897 152.398C682.226 159.497 690.174 170.806 694.528 177.544C698.899 184.283 706.522 197.813 711.471 207.605C716.421 217.414 724.08 234.739 728.469 246.138C732.877 257.519 738.946 276.921 741.963 289.241C744.98 301.543 748.701 321.216 750.218 332.941C751.754 344.665 753 367.554 753 383.794C753 400.017 752.151 421.731 751.103 432.01C750.074 442.307 746.894 460.932 744.058 473.397C741.204 485.862 735.894 504.162 732.245 514.044C728.596 523.926 720.828 541.774 714.994 553.697C708.455 567.047 698.646 583.017 689.452 595.247C681.251 606.176 666.764 622.832 657.28 632.28C647.779 641.728 633.526 654.663 625.614 661.04C617.684 667.417 603.342 677.805 593.75 684.109C584.158 690.414 567.088 699.97 555.816 705.372C544.544 710.755 524.529 718.848 511.325 723.347C498.12 727.845 477.798 733.536 466.165 735.974C454.532 738.413 437.119 741.285 427.473 742.351C417.827 743.417 395.879 744.14 378.701 743.977ZM394.524 578.085C640.842 578.085 679.806 577.724 684.231 575.447C687.139 573.93 693.408 566.469 698.754 558.141C703.921 550.066 707.823 543.147 707.425 542.731C707.01 542.334 590.896 541.882 449.402 541.756C307.891 541.629 190.693 541.16 188.959 540.708C187.225 540.275 185.798 538.631 185.798 537.095C185.798 535.541 201.712 507.757 221.185 475.33C240.639 442.921 258.559 413.764 261.015 410.531C263.454 407.297 266.109 404.659 266.922 404.659C267.717 404.659 278.609 412.753 291.127 422.67C303.646 432.57 321.438 445.884 330.669 452.261C339.918 458.638 354.784 468.032 363.726 473.144C372.667 478.239 386.486 484.941 394.434 488.012C402.382 491.083 414.991 494.696 422.433 496.033C429.875 497.37 444.922 498.472 455.851 498.49C469.507 498.49 484.898 496.9 505.093 493.414C521.242 490.631 534.934 487.849 535.512 487.271C536.108 486.693 534.103 482.611 531.069 478.203C528.052 473.795 520.158 460.932 513.529 449.624C506.917 438.297 487.625 404.659 470.681 374.852C453.737 345.044 432.404 306.168 423.264 288.446C409.752 262.234 406.465 257.031 405.543 260.445C404.929 262.758 404.405 300.46 404.387 344.231C404.369 403.684 403.827 424.35 402.202 425.976C401.009 427.169 398.3 428.144 396.186 428.144C394.091 428.144 390.388 426.049 387.967 423.483C383.596 418.823 383.596 418.822 383.18 287.742C382.964 215.644 382.476 156.336 382.097 155.975C381.735 155.595 378.737 160.382 375.431 166.615C372.143 172.847 360.438 192.936 349.419 211.254C338.418 229.572 326.966 248.486 323.985 253.273C321.005 258.061 311.25 273.362 302.309 287.29C293.367 301.2 279.512 322.535 271.51 334.693C263.508 346.851 245.679 373.461 231.896 393.82C218.114 414.18 197.358 444.674 185.78 461.565C174.201 478.456 152.398 510.702 137.333 533.211C122.249 555.72 109.93 575.032 109.93 576.116C109.93 577.525 190.368 578.085 394.524 578.085ZM693.679 487.56C695.539 483.405 699.477 472.205 702.421 462.667C705.384 453.11 709.376 435.948 711.309 424.531C713.242 413.114 715.373 394.814 716.023 383.884C716.674 372.883 716.312 353.987 715.211 341.576C714.109 329.237 711.58 311.154 709.593 301.381C707.588 291.626 703.487 276.108 700.452 266.913C697.418 257.717 690.246 240.447 684.538 228.524C678.812 216.601 669.581 199.53 664.018 190.587C658.472 181.645 647.002 166.091 638.548 156.029C630.094 145.966 615.824 131.135 606.846 123.078C597.85 115.021 583.959 103.568 575.939 97.6241C567.919 91.6806 553.468 82.3952 543.84 76.9937C534.194 71.5741 518.966 63.9326 510.006 59.9944C501.028 56.0381 485.801 50.2934 476.155 47.2043C466.509 44.1151 448.246 39.364 435.565 36.6542C414.539 32.174 409.084 31.7405 373.661 31.7224C343.819 31.7224 330.633 32.4812 316.76 35.0103C306.825 36.8349 289.393 41.1163 278.031 44.5667C266.651 47.9991 248.967 54.34 238.743 58.6576C228.5 62.9571 210.581 71.9354 198.894 78.6015C187.225 85.2675 171.274 95.2937 163.471 100.894C155.649 106.494 140.584 119.609 129.981 130.051C119.377 140.493 105.342 155.938 98.8025 164.393C92.2634 172.847 83.0509 185.746 78.3182 193.062C73.6036 200.379 65.511 215.427 60.3448 226.483C55.1785 237.539 48.8201 252.695 46.2008 260.138C43.5635 267.581 39.8243 280.191 37.8554 288.139C35.8864 296.088 32.8336 310.305 31.0815 319.753C28.6428 332.868 27.9022 346.092 27.9564 375.755C28.0106 407.929 28.6609 417.684 31.7859 432.66C33.8452 442.596 37.3496 455.549 39.5533 461.42C43.5816 472.133 43.5816 472.133 47.3027 467.038C49.3439 464.238 56.6597 452.911 63.5601 441.874C70.4424 430.854 86.2663 405.978 98.6761 386.594C111.104 367.21 124.724 346.074 128.951 339.625C133.16 333.176 146.021 313.448 157.528 295.817C178.464 263.751 178.464 263.751 199.291 263.408C210.744 263.209 222.684 263.011 225.845 262.956C228.988 262.884 231.842 263.697 232.185 264.745C232.547 265.793 222.431 282.864 209.732 302.682C197.033 322.499 181.444 347.14 175.104 357.419C168.763 367.698 162.513 379.079 161.213 382.71C159.912 386.341 158.828 394.127 158.774 399.999C158.702 410.711 158.702 410.711 162.875 406.791C165.151 404.641 179.837 383.162 195.48 359.063C211.141 334.964 230.632 304.669 238.797 291.752C246.962 278.836 266.073 248.757 281.265 224.911C296.456 201.065 316.886 169.361 326.677 154.457C336.449 139.553 355.994 109.33 370.084 87.2908C384.192 65.2513 396.963 46.7346 398.462 46.1565C399.98 45.5784 402.328 46.03 403.683 47.1501C405.056 48.2882 412.046 58.2601 419.218 69.316C426.407 80.3719 440.623 101.815 450.829 116.972C461.035 132.129 477.636 157.329 487.715 172.974C497.795 188.618 517.99 220.124 532.604 242.976C547.218 265.829 571.784 304.434 587.193 328.786C602.601 353.138 626.012 390.532 639.198 411.885C652.403 433.238 667.956 458.186 673.772 467.291C679.607 476.414 684.9 485.356 685.55 487.163C686.2 488.988 687.537 491.517 688.512 492.781C689.849 494.497 691.168 493.179 693.679 487.56ZM191.09 252.876C190.657 252.876 189.501 252.262 188.507 251.521C187.514 250.799 179.8 242.489 171.347 233.077C162.893 223.647 153.753 214.018 151.025 211.687C148.297 209.339 146.057 206.25 146.057 204.805C146.057 203.359 155.848 190.027 167.788 175.16C181.426 158.215 190.747 148.134 192.824 148.134C194.884 148.134 204.277 158.287 218.041 175.413C230.108 190.425 239.989 203.811 239.989 205.184C239.989 206.539 237.641 208.869 234.787 210.351C231.914 211.832 221.094 222.003 210.726 232.968C200.357 243.934 191.524 252.894 191.09 252.876Z" fill="black"/>
</svg>
