<?xml version="1.0" encoding="UTF-8" standalone="no"?>
<!-- Filename: c5f54da0f46dd6e2eb35162299503730ea0dc45586a16d6d9e1e50ec8c73b7f7.svg -->
<!-- Created with https://svgstud.io -->
<svg
  version="1.1"
  xmlns="http://www.w3.org/2000/svg"
  xmlns:xlink="http://www.w3.org/1999/xlink"
  xmlns:svg="http://www.w3.org/2000/svg"
  xmlns:rdf="http://www.w3.org/1999/02/22-rdf-syntax-ns#"
  xmlns:cc="http://creativecommons.org/ns#"
  xmlns:dc="http://purl.org/dc/elements/1.1/"
  viewBox="0 0 768 768"
  width="768"
  height="768"
  role="img"
  aria-labelledby="titleID descID"
>
  <title id="titleID">Minimal dark-mode favicon. Stylized lowercase “a” or math symbol (λ, π, {}). Geometric, futuristic.</title>
  <desc id="descID">AI-generated SVG illustration: Minimal dark-mode favicon. Stylized lowercase “a” or math symbol (λ, π, {}). Geometric, futuristic., created on https://svgstud.io</desc>

  <rect width="100%" height="100%" fill="white" />

  <metadata id="copyright">
    Created by https://svgstud.io and licensed under CC-BY-SA 4.0 license. Please attribute https://svgstud.io
  </metadata>
  <metadata id="prompt">
    Minimal dark-mode favicon. Stylized lowercase “a” or math symbol (λ, π, {}). Geometric, futuristic.
  </metadata>
  <metadata id="version">
    7
  </metadata>
  <metadata>
    <rdf:RDF
      xmlns:rdf="http://www.w3.org/1999/02/22-rdf-syntax-ns#"
      xmlns:cc="http://creativecommons.org/ns#"
      xmlns:dc="http://purl.org/dc/elements/1.1/"
    >
      <cc:Work rdf:about="">
        <cc:license rdf:resource="http://creativecommons.org/licenses/by-sa/4.0/" />
        <dc:creator>
          <cc:Agent>
            <dc:title>https://svgstud.io</dc:title>
          </cc:Agent>
        </dc:creator>
      </cc:Work>
      <cc:License rdf:about="http://creativecommons.org/licenses/by-sa/4.0/">
        <cc:permits rdf:resource="http://creativecommons.org/ns#Reproduction" />
        <cc:permits rdf:resource="http://creativecommons.org/ns#Distribution" />
        <cc:requires rdf:resource="http://creativecommons.org/ns#Notice" />
        <cc:requires rdf:resource="http://creativecommons.org/ns#Attribution" />
        <cc:permits rdf:resource="http://creativecommons.org/ns#DerivativeWorks" />
        <cc:requires rdf:resource="http://creativecommons.org/ns#ShareAlike" />
      </cc:License>
    </rdf:RDF>
  </metadata>
  <metadata id="uid">c5f54da0f46dd6e2eb35162299503730ea0dc45586a16d6d9e1e50ec8c73b7f7</metadata>

  <path stroke="none" fill="black" fill-rule="evenodd" d="M374.79,581.83C365.28,581.74 355.70,581.50 353.50,581.30C351.30,581.10 345.45,580.26 340.50,579.44C335.55,578.62 326.20,576.60 319.72,574.95C313.24,573.30 302.89,569.99 296.72,567.61C290.55,565.22 280.88,560.95 275.23,558.12C269.58,555.28 261.71,550.88 257.73,548.33C253.75,545.78 247.12,541.13 243.00,537.99C238.88,534.85 231.98,529.00 227.68,524.98C223.38,520.96 216.23,513.36 211.79,508.08C207.36,502.81 200.91,494.23 197.46,489.00C194.01,483.77 188.61,474.33 185.46,468.02C182.31,461.70 177.81,450.68 175.45,443.52C173.10,436.36 170.26,425.77 169.14,420.00C168.03,414.22 166.58,404.37 165.92,398.11C165.20,391.20 164.95,380.20 165.30,370.11C165.61,360.98 166.76,348.04 167.85,341.37C168.94,334.69 170.98,324.94 172.37,319.69C173.77,314.43 176.55,305.72 178.55,300.32C180.55,294.92 184.44,286.23 187.20,281.00C189.96,275.77 194.70,267.68 197.74,263.00C200.77,258.32 206.30,250.67 210.02,246.00C213.74,241.32 220.82,233.60 225.75,228.85C230.68,224.10 238.97,217.05 244.16,213.20C249.35,209.35 258.08,203.51 263.55,200.23C269.02,196.95 276.43,192.79 280.00,190.99C283.57,189.19 291.00,186.02 296.50,183.96C302.00,181.89 310.77,179.04 316.00,177.62C321.23,176.20 329.10,174.38 333.50,173.57C337.90,172.76 345.87,171.62 351.21,171.05C356.55,170.47 365.91,170.00 372.00,170.00C378.09,170.00 387.45,170.47 392.79,171.03C398.13,171.60 407.23,172.98 413.00,174.09C418.77,175.20 429.57,178.12 437.00,180.59C444.43,183.06 456.38,187.94 463.57,191.45C470.75,194.95 482.00,201.41 488.57,205.81C495.13,210.22 505.00,217.83 510.50,222.73C516.00,227.63 523.65,235.15 527.50,239.43C531.35,243.72 536.92,250.43 539.87,254.36C542.82,258.29 547.22,264.55 549.63,268.28C552.05,272.01 556.27,279.50 559.01,284.92C561.75,290.35 565.99,299.94 568.42,306.25C570.86,312.55 574.22,323.29 575.89,330.11C577.56,336.92 579.62,347.81 580.46,354.30C581.31,360.79 582.00,373.46 582.00,382.45C582.00,391.43 581.53,403.45 580.95,409.14C580.38,414.84 578.62,425.15 577.05,432.05C575.47,438.95 572.53,449.08 570.51,454.55C568.49,460.02 564.19,469.90 560.96,476.50C557.34,483.89 551.91,492.73 546.82,499.50C542.28,505.55 534.26,514.77 529.01,520.00C523.75,525.23 515.86,532.39 511.48,535.92C507.09,539.45 499.15,545.20 493.84,548.69C488.53,552.18 479.08,557.47 472.84,560.46C466.60,563.44 455.52,567.92 448.21,570.41C440.90,572.90 429.65,576.05 423.21,577.40C416.77,578.75 407.13,580.34 401.79,580.93C396.45,581.52 384.30,581.92 374.79,581.83zM383.55,490.00C519.91,490.00 541.48,489.80 543.93,488.54C545.54,487.70 549.01,483.57 551.97,478.96C554.83,474.49 556.99,470.66 556.77,470.43C556.54,470.21 492.26,469.96 413.93,469.89C335.59,469.82 270.71,469.56 269.75,469.31C268.79,469.07 268.00,468.16 268.00,467.31C268.00,466.45 276.81,451.07 287.59,433.12C298.36,415.18 308.28,399.04 309.64,397.25C310.99,395.46 312.46,394.00 312.91,394.00C313.35,394.00 319.38,398.48 326.31,403.97C333.24,409.45 343.09,416.82 348.20,420.35C353.32,423.88 361.55,429.08 366.50,431.91C371.45,434.73 379.10,438.44 383.50,440.14C387.90,441.84 394.88,443.84 399.00,444.58C403.12,445.32 411.45,445.93 417.50,445.94C425.06,445.94 433.58,445.06 444.76,443.13C453.70,441.59 461.28,440.05 461.60,439.73C461.93,439.41 460.82,437.15 459.14,434.71C457.47,432.27 453.10,425.15 449.43,418.89C445.77,412.62 435.09,394.00 425.71,377.50C416.33,361.00 404.52,339.48 399.46,329.67C391.98,315.16 390.16,312.28 389.65,314.17C389.31,315.45 389.02,336.32 389.01,360.55C389.00,393.46 388.70,404.90 387.80,405.80C387.14,406.46 385.64,407.00 384.47,407.00C383.31,407.00 381.26,405.84 379.92,404.42C377.50,401.84 377.50,401.84 377.27,329.28C377.15,289.37 376.88,256.54 376.67,256.34C376.47,256.13 374.81,258.78 372.98,262.23C371.16,265.68 364.68,276.80 358.58,286.94C352.49,297.08 346.15,307.55 344.50,310.20C342.85,312.85 337.45,321.32 332.50,329.03C327.55,336.73 319.88,348.54 315.45,355.27C311.02,362.00 301.15,376.73 293.52,388.00C285.89,399.27 274.40,416.15 267.99,425.50C261.58,434.85 249.51,452.70 241.17,465.16C232.82,477.62 226.00,488.31 226.00,488.91C226.00,489.69 270.53,490.00 383.55,490.00zM549.16,439.89C550.19,437.59 552.37,431.39 554.00,426.11C555.64,420.82 557.85,411.32 558.92,405.00C559.99,398.68 561.17,388.55 561.53,382.50C561.89,376.41 561.69,365.95 561.08,359.08C560.47,352.25 559.07,342.24 557.97,336.83C556.86,331.43 554.59,322.84 552.91,317.75C551.23,312.66 547.26,303.10 544.10,296.50C540.93,289.90 535.82,280.45 532.74,275.50C529.67,270.55 523.32,261.94 518.64,256.37C513.96,250.80 506.06,242.59 501.09,238.13C496.11,233.67 488.42,227.33 483.98,224.04C479.54,220.75 471.54,215.61 466.21,212.62C460.87,209.62 452.44,205.39 447.48,203.21C442.51,201.02 434.08,197.84 428.74,196.13C423.40,194.42 413.29,191.79 406.27,190.29C394.63,187.81 391.61,187.57 372.00,187.56C355.48,187.56 348.18,187.98 340.50,189.38C335.00,190.39 325.35,192.76 319.06,194.67C312.76,196.57 302.97,200.08 297.31,202.47C291.64,204.85 281.72,209.82 275.25,213.51C268.79,217.20 259.96,222.75 255.64,225.85C251.31,228.95 242.97,236.21 237.10,241.99C231.23,247.77 223.46,256.32 219.84,261.00C216.22,265.68 211.12,272.82 208.50,276.87C205.89,280.92 201.41,289.25 198.55,295.37C195.69,301.49 192.17,309.88 190.72,314.00C189.26,318.12 187.19,325.10 186.10,329.50C185.01,333.90 183.32,341.77 182.35,347.00C181.00,354.26 180.59,361.58 180.62,378.00C180.65,395.81 181.01,401.21 182.74,409.50C183.88,415.00 185.82,422.17 187.04,425.42C189.27,431.35 189.27,431.35 191.33,428.53C192.46,426.98 196.51,420.71 200.33,414.60C204.14,408.50 212.90,394.73 219.77,384.00C226.65,373.27 234.19,361.57 236.53,358.00C238.86,354.43 245.98,343.51 252.35,333.75C263.94,316.00 263.94,316.00 275.47,315.81C281.81,315.70 288.42,315.59 290.17,315.56C291.91,315.52 293.49,315.97 293.68,316.55C293.88,317.13 288.28,326.58 281.25,337.55C274.22,348.52 265.59,362.16 262.08,367.85C258.57,373.54 255.11,379.84 254.39,381.85C253.67,383.86 253.07,388.17 253.04,391.42C253.00,397.35 253.00,397.35 255.31,395.18C256.57,393.99 264.70,382.10 273.36,368.76C282.03,355.42 292.82,338.65 297.34,331.50C301.86,324.35 312.44,307.70 320.85,294.50C329.26,281.30 340.57,263.75 345.99,255.50C351.40,247.25 362.22,230.52 370.02,218.32C377.83,206.12 384.90,195.87 385.73,195.55C386.57,195.23 387.87,195.48 388.62,196.10C389.38,196.73 393.25,202.25 397.22,208.37C401.20,214.49 409.07,226.36 414.72,234.75C420.37,243.14 429.56,257.09 435.14,265.75C440.72,274.41 451.90,291.85 459.99,304.50C468.08,317.15 481.68,338.52 490.21,352.00C498.74,365.48 511.70,386.18 519.00,398.00C526.31,409.82 534.92,423.63 538.14,428.67C541.37,433.72 544.30,438.67 544.66,439.67C545.02,440.68 545.76,442.08 546.30,442.78C547.04,443.73 547.77,443.00 549.16,439.89zM270.93,309.98C270.69,309.98 270.05,309.64 269.50,309.23C268.95,308.83 264.68,304.23 260.00,299.02C255.32,293.80 250.26,288.47 248.75,287.18C247.24,285.88 246.00,284.17 246.00,283.37C246.00,282.57 251.42,275.19 258.03,266.96C265.58,257.58 270.74,252.00 271.89,252.00C273.03,252.00 278.23,257.62 285.85,267.10C292.53,275.41 298.00,282.82 298.00,283.58C298.00,284.33 296.70,285.62 295.12,286.44C293.53,287.26 287.54,292.89 281.80,298.96C276.06,305.03 271.17,309.99 270.93,309.98z" />

</svg>
